<?xml version="1.0" standalone="no"?>
<!DOCTYPE svg PUBLIC "-//W3C//DTD SVG 20010904//EN"
 "http://www.w3.org/TR/2001/REC-SVG-20010904/DTD/svg10.dtd">
<svg version="1.0" xmlns="http://www.w3.org/2000/svg"
 width="500.000000pt" height="500.000000pt" viewBox="0 0 500.000000 500.000000"
 preserveAspectRatio="xMidYMid meet">
<metadata>
Created by potrace 1.11, written by Peter Selinger 2001-2013
</metadata>
<g transform="translate(0.000000,500.000000) scale(0.100000,-0.100000)"
fill="#000000" stroke="none">
<path d="M2445 4185 c-33 -17 -80 -42 -105 -55 -25 -13 -47 -24 -50 -25 -3 0
-21 -8 -40 -17 -148 -67 -237 -105 -365 -154 -49 -18 -97 -38 -105 -42 -8 -5
-40 -15 -70 -22 -30 -7 -70 -21 -88 -32 -18 -11 -55 -31 -82 -44 -27 -13 -65
-37 -84 -55 -57 -50 -125 -147 -141 -203 -19 -66 -27 -177 -13 -194 22 -26 -2
-23 -46 7 -179 123 -435 164 -676 107 -133 -32 -305 -107 -381 -167 -20 -16
-40 -29 -43 -29 -3 0 -14 -8 -24 -17 -10 -10 -44 -40 -76 -67 -67 -58 -66 -61
41 -96 40 -13 73 -27 73 -32 0 -4 -12 -16 -28 -26 -52 -32 -121 -87 -122 -96
-1 -30 155 -195 207 -219 13 -6 23 -14 23 -18 0 -4 17 -13 38 -20 20 -7 46
-18 57 -25 11 -7 47 -20 80 -30 33 -9 70 -27 82 -40 19 -21 154 -109 161 -105
1 1 17 -5 35 -12 101 -42 282 -64 372 -45 124 26 256 91 307 151 43 50 59 32
85 -99 26 -125 25 -167 -12 -299 -19 -70 -29 -169 -29 -315 -1 -196 9 -264 51
-340 110 -200 249 -305 501 -379 39 -12 72 -25 72 -29 0 -4 24 -32 53 -63 97
-102 252 -195 367 -218 30 -6 69 -13 85 -17 17 -3 82 -7 145 -9 124 -4 340 27
430 61 26 10 81 18 130 20 324 10 470 74 559 244 40 78 50 114 55 204 3 65 7
80 21 82 34 5 86 50 106 92 16 33 23 70 27 151 3 65 1 111 -5 114 -5 3 -10 1
-10 -6 -1 -103 -48 -218 -103 -256 -32 -21 -42 -23 -120 -18 -82 5 -136 20
-208 55 -26 13 -32 22 -27 37 3 11 8 28 10 37 3 10 8 28 11 40 4 13 9 58 11
101 4 62 2 77 -9 77 -9 0 -19 -17 -25 -42 -17 -70 -17 -71 -35 -92 -10 -11
-18 -25 -18 -30 0 -17 -90 -106 -107 -106 -3 0 -24 -9 -47 -19 -38 -18 -71
-31 -88 -36 -5 -2 -9 -3 -10 -5 -2 -1 -10 -3 -18 -5 -8 -1 -42 -8 -75 -15 -80
-18 -334 -18 -405 0 -62 15 -80 29 -108 85 -17 34 -21 65 -25 206 -3 138 -7
171 -22 197 -47 79 -193 57 -282 -42 -55 -61 -73 -85 -73 -95 0 -5 -11 -33
-24 -62 -32 -72 -50 -160 -48 -238 2 -178 172 -322 330 -279 24 7 47 5 83 -7
74 -25 225 -23 314 4 63 18 152 68 197 111 9 8 52 21 95 28 114 18 121 19 206
43 72 20 80 21 115 6 50 -21 74 -29 92 -32 8 -2 50 -10 93 -19 44 -8 82 -15
85 -15 26 4 30 -4 26 -43 -11 -95 -46 -168 -114 -236 -47 -46 -104 -71 -192
-81 -66 -8 -107 -5 -217 13 -25 4 -45 -1 -80 -22 -25 -15 -49 -27 -53 -27 -3
0 -10 -3 -14 -7 -4 -5 -17 -8 -29 -8 -11 0 -25 -4 -31 -8 -5 -5 -34 -14 -64
-21 -30 -6 -66 -14 -80 -17 -14 -3 -79 -7 -145 -8 -261 -4 -412 54 -585 226
-74 74 -177 210 -199 265 -25 62 -34 19 -15 -77 4 -19 8 -38 8 -42 1 -3 4 -10
9 -14 4 -4 7 -15 7 -25 0 -19 -2 -19 -55 2 -16 7 -35 13 -42 15 -7 1 -26 12
-42 23 -16 12 -33 21 -38 21 -24 0 -147 123 -181 180 -14 25 -29 47 -32 50
-16 13 -52 126 -68 210 -13 73 -5 343 12 420 26 113 28 135 17 176 -6 22 -13
55 -16 74 -3 19 -10 49 -15 65 -8 27 -23 106 -36 190 -21 144 -12 300 24 387
6 15 18 51 27 80 8 29 29 80 45 112 17 32 30 60 30 62 0 10 -51 2 -96 -16 -49
-18 -53 -18 -67 -2 -33 36 -56 106 -48 142 4 19 8 38 9 43 1 4 2 15 2 25 0 10
22 47 49 83 37 49 64 73 103 93 29 14 64 33 78 41 14 7 86 43 160 78 74 36
191 92 260 125 115 55 325 154 394 186 16 8 45 13 65 11 140 -12 198 -18 211
-25 8 -4 20 -6 25 -4 13 5 175 -40 245 -67 128 -50 249 -128 335 -214 40 -39
111 -135 108 -145 -1 -3 2 -9 7 -15 4 -5 15 -27 24 -48 l16 -38 -28 2 c-15 2
-32 7 -39 12 -14 10 -163 23 -163 14 0 -3 24 -17 54 -30 182 -84 358 -265 341
-351 -12 -58 -49 -166 -57 -166 -4 0 -8 -6 -8 -14 0 -7 -17 -33 -38 -56 l-38
-44 -39 64 c-54 88 -199 260 -210 248 -13 -12 7 -87 31 -124 85 -125 156 -254
229 -419 49 -109 66 -189 37 -171 -4 2 -28 -5 -52 -17 l-45 -21 135 -7 c74 -4
146 -10 160 -13 14 -3 50 -11 80 -17 30 -6 67 -18 83 -25 15 -8 27 -12 27 -9
0 7 -39 45 -47 45 -3 0 -14 7 -24 16 -18 16 -96 60 -166 93 -43 20 -44 22 -69
124 l-7 29 39 -20 c107 -54 266 -106 388 -128 146 -26 288 -4 367 57 17 13 43
24 58 25 52 3 127 15 166 26 67 19 81 25 125 46 42 21 43 41 2 122 -15 30 -29
58 -30 63 -2 4 12 14 31 22 58 24 187 131 187 155 0 28 -227 162 -327 194
-101 31 -145 37 -342 40 -135 3 -164 0 -250 -21 -123 -31 -169 -47 -233 -79
-56 -29 -62 -26 -73 35 -10 52 -70 177 -97 203 -32 30 -68 83 -68 98 0 13 -53
120 -106 217 -108 195 -422 372 -739 417 -22 3 -58 8 -80 11 -22 4 -71 7 -110
9 -62 2 -77 -1 -130 -29z m-1531 -819 c130 -21 254 -76 319 -141 40 -42 107
-153 107 -179 0 -9 -32 -3 -112 22 -103 31 -125 35 -238 35 -122 1 -199 -13
-207 -39 -2 -5 29 -10 68 -11 66 -2 219 -29 219 -40 0 -2 -29 -34 -65 -71 -36
-36 -65 -70 -65 -74 0 -10 140 33 236 72 28 12 34 11 63 -11 18 -13 49 -46 69
-73 32 -44 35 -55 35 -112 0 -53 -4 -69 -28 -100 -58 -76 -218 -117 -374 -94
-42 6 -101 18 -131 26 -55 15 -190 75 -190 84 0 3 27 21 60 40 33 19 70 44 81
57 l21 22 -58 -5 c-199 -18 -327 12 -489 115 -54 34 -55 33 66 74 150 52 349
163 334 187 -3 4 -34 1 -70 -6 -101 -21 -251 -10 -311 24 -19 10 -22 8 140 89
83 42 188 80 246 89 14 3 31 7 38 9 8 3 37 8 65 11 29 4 53 7 55 9 3 3 72 -2
116 -9z m3641 -150 c33 -8 85 -21 115 -29 58 -17 170 -72 182 -91 7 -10 -45
-66 -63 -66 -4 0 -14 -6 -22 -14 -18 -19 -88 -56 -104 -56 -19 0 -16 -21 6
-44 19 -21 71 -109 71 -121 0 -7 -41 -23 -73 -29 -12 -2 -38 -7 -57 -11 -19
-3 -62 -8 -95 -9 -60 -4 -125 -23 -125 -38 0 -4 -8 -8 -18 -8 -10 0 -22 -3
-26 -7 -13 -13 -51 -18 -141 -17 -76 1 -144 7 -165 15 -3 1 -8 1 -11 1 -4 -1
-36 10 -73 23 -36 13 -66 22 -66 20 0 -4 -107 40 -202 84 -26 11 -50 25 -53
31 -3 6 9 29 28 53 34 41 93 146 89 158 -10 41 306 149 481 165 40 3 73 7 75
9 8 6 196 -8 247 -19z m-2045 -1306 c23 -23 22 -16 25 -195 3 -158 12 -189 70
-253 44 -49 135 -82 240 -87 39 -2 72 -4 75 -5 3 -1 -13 -8 -35 -16 -66 -25
-172 -34 -261 -21 -43 6 -138 48 -149 67 -3 5 -13 10 -22 10 -12 0 -14 -7 -9
-35 8 -41 -1 -44 -66 -18 -56 21 -76 39 -98 88 -27 59 -33 122 -20 194 18 100
48 167 96 218 66 71 118 89 154 53z"/>
<path d="M4145 3099 c-100 -13 -119 -18 -189 -53 -73 -36 -190 -131 -181 -147
9 -14 69 -2 205 40 137 42 134 42 205 -13 22 -17 49 -36 60 -42 11 -5 37 -20
57 -32 20 -13 39 -19 41 -15 3 5 -21 38 -54 73 -70 77 -85 99 -67 102 7 0 18
2 23 3 92 17 153 23 230 24 68 1 47 14 -65 39 -107 24 -191 31 -265 21z"/>
<path d="M1963 3616 c-29 -7 -53 -11 -53 -8 0 2 -6 0 -12 -5 -7 -6 -29 -16
-50 -22 -20 -7 -48 -23 -63 -37 -25 -23 -26 -26 -11 -37 14 -10 15 -18 7 -38
-12 -33 -24 -124 -22 -169 3 -73 34 -237 53 -278 25 -52 65 -83 94 -72 20 8
54 50 59 74 1 6 7 25 14 41 6 17 14 36 16 42 2 7 11 10 20 7 8 -3 12 -10 9
-15 -3 -5 -1 -9 3 -9 5 0 25 -29 44 -65 18 -36 38 -64 43 -62 4 2 16 24 26 49
19 51 23 36 -39 170 -11 26 -21 50 -21 53 0 15 -94 150 -116 167 -34 27 -21
49 24 42 96 -14 186 -87 280 -227 17 -26 32 -50 32 -52 0 -2 20 -38 45 -79 25
-42 45 -81 45 -85 0 -5 16 -39 35 -75 19 -36 33 -66 30 -66 -2 0 9 -28 25 -62
16 -35 36 -81 45 -103 l16 -40 25 29 c32 36 32 34 -40 306 -12 45 -91 254
-117 308 -16 34 -29 64 -29 66 0 10 -96 175 -118 201 -14 17 -41 36 -61 43
-54 19 -178 24 -238 8z"/>
<path d="M2900 2677 c-137 -35 -226 -95 -280 -192 -25 -44 -38 -95 -46 -175
-7 -77 0 -74 49 22 19 36 41 73 48 82 53 60 101 106 144 137 54 39 214 109
248 109 23 0 59 19 42 21 -39 6 -176 3 -205 -4z"/>
<path d="M2983 2343 c-58 -30 -80 -49 -100 -87 -33 -63 -5 -159 56 -190 44
-23 99 -28 131 -11 17 9 32 15 35 14 3 -1 19 5 36 11 37 16 43 10 28 -24 -16
-34 -10 -38 28 -24 25 9 38 9 59 0 14 -7 28 -11 31 -9 12 13 8 156 -6 200 -17
55 -65 111 -109 129 -52 21 -137 17 -189 -9z"/>
<path d="M3980 2266 c0 -68 -24 -102 -113 -159 -119 -77 -143 -123 -98 -186
25 -35 85 -66 145 -75 29 -5 37 -2 46 15 12 22 0 75 -28 118 -15 22 -14 25 31
65 78 70 103 138 75 203 -27 60 -58 71 -58 19z"/>
</g>
</svg>
